<?xml version="1.0" encoding="UTF-8"?> <svg xmlns="http://www.w3.org/2000/svg" width="463" height="64" viewBox="0 0 463 64" fill="none"><path d="M24.96 37.848V31.896H42.432V51H37.728L36.48 47.016C33.408 50.312 28.608 51.96 22.08 51.96C8.576 51.96 1.824 45.928 1.824 33.864C1.824 28.456 3.584 24.12 7.104 20.856C10.752 17.464 15.744 15.768 22.08 15.768C34.08 15.768 40.8 19.832 42.24 27.96H31.872C30.688 24.184 27.776 22.296 23.136 22.296C19.264 22.296 16.304 23.56 14.256 26.088C12.56 28.168 11.712 30.76 11.712 33.864C11.712 36.968 12.56 39.56 14.256 41.64C16.304 44.168 19.264 45.432 23.136 45.432C28.896 45.432 32.272 42.904 33.264 37.848H24.96ZM46.0081 38.136C46.0081 33.464 47.5761 29.944 50.7121 27.576C53.5921 25.4 57.6881 24.312 63.0001 24.312C68.3121 24.312 72.4241 25.4 75.3361 27.576C78.4401 29.944 79.9921 33.464 79.9921 38.136C79.9921 42.808 78.4401 46.328 75.3361 48.696C72.4241 50.872 68.3121 51.96 63.0001 51.96C57.6881 51.96 53.5921 50.872 50.7121 48.696C47.5761 46.328 46.0081 42.808 46.0081 38.136ZM54.7441 38.136C54.7441 40.664 55.4641 42.616 56.9041 43.992C58.3441 45.336 60.3761 46.008 63.0001 46.008C65.6241 46.008 67.6561 45.336 69.0961 43.992C70.5361 42.616 71.2561 40.664 71.2561 38.136C71.2561 35.608 70.5361 33.672 69.0961 32.328C67.6561 30.952 65.6241 30.264 63.0001 30.264C60.3761 30.264 58.3441 30.952 56.9041 32.328C55.4641 33.672 54.7441 35.608 54.7441 38.136ZM110.029 36.312V44.472H123.757C126.413 44.472 127.741 43.128 127.741 40.44C127.741 37.688 126.093 36.312 122.797 36.312H110.029ZM100.717 51V16.728H126.445C129.229 16.728 131.469 17.368 133.165 18.648C135.117 20.184 136.093 22.424 136.093 25.368C136.093 26.84 135.741 28.184 135.037 29.4C134.205 30.808 133.037 31.752 131.533 32.232V32.328C133.421 32.648 134.941 33.656 136.093 35.352C137.117 36.888 137.629 38.648 137.629 40.632C137.629 43.48 136.845 45.784 135.277 47.544C133.197 49.848 129.821 51 125.149 51H100.717ZM110.029 22.968V30.36H122.989C125.325 30.36 126.493 29.128 126.493 26.664C126.493 24.2 124.893 22.968 121.693 22.968H110.029ZM164.549 43.32H173.573C171.269 49.08 165.925 51.96 157.541 51.96C152.229 51.96 148.133 50.872 145.253 48.696C142.117 46.328 140.549 42.808 140.549 38.136C140.549 33.464 142.117 29.944 145.253 27.576C148.133 25.4 152.229 24.312 157.541 24.312C163.013 24.312 167.157 25.656 169.973 28.344C172.693 30.936 174.053 34.696 174.053 39.624V40.392H149.285V40.488C149.285 41.96 149.941 43.304 151.253 44.52C152.821 45.96 154.917 46.68 157.541 46.68C160.997 46.68 163.333 45.56 164.549 43.32ZM149.285 35.4H165.317V35.304C165.317 34.184 164.757 33.064 163.637 31.944C162.133 30.376 160.037 29.592 157.349 29.592C154.533 29.592 152.357 30.472 150.821 32.232C149.797 33.384 149.285 34.408 149.285 35.304V35.4ZM197.332 25.272H206.356L192.292 55.224C191.3 57.336 190.148 58.744 188.836 59.448C187.556 60.184 185.7 60.552 183.268 60.552C181.924 60.552 179.94 60.488 177.316 60.36V54.408C178.916 54.536 180.132 54.6 180.964 54.6C182.82 54.6 184.148 53.72 184.948 51.96L185.812 50.088L173.716 25.272H182.884L190.228 42.264L197.332 25.272ZM206.289 38.136C206.289 33.464 207.857 29.944 210.993 27.576C213.873 25.4 217.969 24.312 223.281 24.312C228.593 24.312 232.705 25.4 235.617 27.576C238.721 29.944 240.273 33.464 240.273 38.136C240.273 42.808 238.721 46.328 235.617 48.696C232.705 50.872 228.593 51.96 223.281 51.96C217.969 51.96 213.873 50.872 210.993 48.696C207.857 46.328 206.289 42.808 206.289 38.136ZM215.025 38.136C215.025 40.664 215.745 42.616 217.185 43.992C218.625 45.336 220.657 46.008 223.281 46.008C225.905 46.008 227.937 45.336 229.377 43.992C230.817 42.616 231.537 40.664 231.537 38.136C231.537 35.608 230.817 33.672 229.377 32.328C227.937 30.952 225.905 30.264 223.281 30.264C220.657 30.264 218.625 30.952 217.185 32.328C215.745 33.672 215.025 35.608 215.025 38.136ZM265.209 51V36.408C265.209 32.888 263.321 31.128 259.545 31.128C254.713 31.128 252.297 33.608 252.297 38.568V51H243.849V25.272H252.009V29.016H252.105C252.937 27.832 254.265 26.824 256.089 25.992C258.105 25.064 260.281 24.6 262.617 24.6C265.465 24.6 267.849 25.192 269.769 26.376C272.361 27.976 273.657 30.472 273.657 33.864V51H265.209ZM285.963 38.28C285.963 40.616 286.763 42.472 288.363 43.848C289.803 45.096 291.659 45.72 293.931 45.72C296.171 45.72 298.027 45.096 299.499 43.848C301.067 42.472 301.851 40.616 301.851 38.28C301.851 35.944 301.067 34.088 299.499 32.712C298.027 31.464 296.171 30.84 293.931 30.84C291.659 30.84 289.803 31.464 288.363 32.712C286.763 34.088 285.963 35.944 285.963 38.28ZM301.851 51V47.784H301.755C299.451 50.568 296.059 51.96 291.579 51.96C287.387 51.96 283.995 50.824 281.403 48.552C278.619 46.12 277.227 42.744 277.227 38.424C277.227 34.296 278.587 30.968 281.307 28.44C284.027 25.88 287.451 24.6 291.579 24.6C296.347 24.6 299.643 25.88 301.467 28.44H301.563V16.152H310.011V51H301.851ZM360.832 40.632V16.728H369.856V51H359.728L341.056 27.096H340.96V51H331.936V16.728H342.736L360.736 40.632H360.832ZM397.549 43.32H406.573C404.269 49.08 398.925 51.96 390.541 51.96C385.229 51.96 381.133 50.872 378.253 48.696C375.117 46.328 373.549 42.808 373.549 38.136C373.549 33.464 375.117 29.944 378.253 27.576C381.133 25.4 385.229 24.312 390.541 24.312C396.013 24.312 400.157 25.656 402.973 28.344C405.693 30.936 407.053 34.696 407.053 39.624V40.392H382.285V40.488C382.285 41.96 382.941 43.304 384.253 44.52C385.821 45.96 387.917 46.68 390.541 46.68C393.997 46.68 396.333 45.56 397.549 43.32ZM382.285 35.4H398.317V35.304C398.317 34.184 397.757 33.064 396.637 31.944C395.133 30.376 393.037 29.592 390.349 29.592C387.533 29.592 385.357 30.472 383.821 32.232C382.797 33.384 382.285 34.408 382.285 35.304V35.4ZM424.764 33.144L430.86 25.272H441.372L430.476 37.656L442.284 51H431.292L424.668 42.504L418.14 51H407.34L419.052 37.656L408.252 25.272H418.86L424.764 33.144ZM446.741 25.272V17.304H455.189V25.272H462.005V30.936H455.189V42.936C455.189 43.96 455.381 44.664 455.765 45.048C456.181 45.432 456.933 45.624 458.021 45.624C458.981 45.624 460.357 45.56 462.149 45.432V51.096C459.525 51.416 457.317 51.576 455.525 51.576C451.845 51.576 449.381 50.888 448.133 49.512C447.205 48.488 446.741 46.632 446.741 43.944V30.936H441.413V25.272H446.741Z" fill="black"></path><path d="M417.394 52H404.5L408.5 48L413.5 43L418 38.5L424.718 32L430.352 37.5L435.422 42.5L445 52H432.042C429.789 49.5 425.732 44.4 425.282 44C424.831 43.6 425.094 43.8333 424.718 44L417.394 52Z" fill="#F5333F"></path></svg> 